<svg width="1024" height="753" viewBox="0 0 1024 753" fill="none" xmlns="http://www.w3.org/2000/svg">
<g clip-path="url(#clip0_122_130)">
<rect width="1024" height="753" fill="#121214"/>
<g opacity="0.2" filter="url(#filter0_f_122_130)">
<ellipse cx="550.5" cy="49" rx="670.5" ry="350" fill="#B3A659"/>
</g>
<path d="M71.0349 285C72.5302 285 73.6622 285.63 74.4308 286.891C75.2134 288.138 75.6047 289.953 75.6047 292.336C75.6047 294.719 75.2134 296.541 74.4308 297.802C73.6622 299.063 72.5302 299.693 71.0349 299.693C69.5536 299.693 68.4216 299.063 67.639 297.802C66.8564 296.541 66.4651 294.719 66.4651 292.336C66.4651 289.967 66.8564 288.152 67.639 286.891C68.4216 285.63 69.5536 285 71.0349 285ZM67.9534 292.336C67.9534 294.026 68.1072 295.35 68.4146 296.306L73.0683 287.099C72.5791 286.448 71.9013 286.122 71.0349 286.122C70.0706 286.122 69.316 286.635 68.771 287.66C68.2259 288.672 67.9534 290.23 67.9534 292.336ZM71.0349 298.55C72.0131 298.55 72.7748 298.044 73.3198 297.033C73.8648 296.008 74.1373 294.442 74.1373 292.336C74.1373 290.549 73.9627 289.163 73.6133 288.18L68.9596 297.469C69.4627 298.19 70.1545 298.55 71.0349 298.55Z" fill="url(#paint0_linear_122_130)" fill-opacity="0.6"/>
<path d="M72.2926 322.135H75.3741V323.236H67.3874V322.135H70.9511V310.455L67.5551 312.471L66.9682 311.536L71.1607 308.959H72.2926V322.135Z" fill="url(#paint1_linear_122_130)" fill-opacity="0.6"/>
<path d="M71.0349 332.502C72.5302 332.502 73.6622 333.133 74.4308 334.393C75.2134 335.64 75.6047 337.455 75.6047 339.838C75.6047 342.221 75.2134 344.043 74.4308 345.304C73.6622 346.565 72.5302 347.195 71.0349 347.195C69.5536 347.195 68.4216 346.565 67.639 345.304C66.8564 344.043 66.4651 342.221 66.4651 339.838C66.4651 337.469 66.8564 335.654 67.639 334.393C68.4216 333.133 69.5536 332.502 71.0349 332.502ZM67.9534 339.838C67.9534 341.529 68.1072 342.852 68.4146 343.808L73.0683 334.601C72.5791 333.95 71.9013 333.624 71.0349 333.624C70.0706 333.624 69.316 334.137 68.771 335.162C68.2259 336.174 67.9534 337.732 67.9534 339.838ZM71.0349 346.052C72.0131 346.052 72.7748 345.546 73.3198 344.535C73.8648 343.51 74.1373 341.944 74.1373 339.838C74.1373 338.051 73.9627 336.665 73.6133 335.682L68.9596 344.971C69.4627 345.692 70.1545 346.052 71.0349 346.052Z" fill="url(#paint2_linear_122_130)" fill-opacity="0.6"/>
<path d="M72.2926 369.637H75.3741V370.738H67.3874V369.637H70.9511V357.957L67.5551 359.973L66.9682 359.038L71.1607 356.461H72.2926V369.637Z" fill="url(#paint3_linear_122_130)" fill-opacity="0.6"/>
<path d="M72.2926 393.388H75.3741V394.489H67.3874V393.388H70.9511V381.708L67.5551 383.724L66.9682 382.789L71.1607 380.212H72.2926V393.388Z" fill="url(#paint4_linear_122_130)" fill-opacity="0.6"/>
<path d="M71.0349 403.755C72.5302 403.755 73.6622 404.386 74.4308 405.646C75.2134 406.893 75.6047 408.708 75.6047 411.091C75.6047 413.474 75.2134 415.296 74.4308 416.557C73.6622 417.818 72.5302 418.448 71.0349 418.448C69.5536 418.448 68.4216 417.818 67.639 416.557C66.8564 415.296 66.4651 413.474 66.4651 411.091C66.4651 408.722 66.8564 406.907 67.639 405.646C68.4216 404.386 69.5536 403.755 71.0349 403.755ZM67.9534 411.091C67.9534 412.782 68.1072 414.105 68.4146 415.061L73.0683 405.854C72.5791 405.203 71.9013 404.878 71.0349 404.878C70.0706 404.878 69.316 405.39 68.771 406.415C68.2259 407.427 67.9534 408.985 67.9534 411.091ZM71.0349 417.305C72.0131 417.305 72.7748 416.8 73.3198 415.788C73.8648 414.763 74.1373 413.197 74.1373 411.091C74.1373 409.304 73.9627 407.919 73.6133 406.935L68.9596 416.225C69.4627 416.945 70.1545 417.305 71.0349 417.305Z" fill="url(#paint5_linear_122_130)" fill-opacity="0.6"/>
<path d="M72.2926 440.89H75.3741V441.992H67.3874V440.89H70.9511V429.21L67.5551 431.226L66.9682 430.291L71.1607 427.714H72.2926V440.89Z" fill="url(#paint6_linear_122_130)" fill-opacity="0.6"/>
<path d="M71.0349 451.257C72.5302 451.257 73.6622 451.888 74.4308 453.149C75.2134 454.396 75.6047 456.211 75.6047 458.594C75.6047 460.977 75.2134 462.798 74.4308 464.059C73.6622 465.32 72.5302 465.95 71.0349 465.95C69.5536 465.95 68.4216 465.32 67.639 464.059C66.8564 462.798 66.4651 460.977 66.4651 458.594C66.4651 456.224 66.8564 454.409 67.639 453.149C68.4216 451.888 69.5536 451.257 71.0349 451.257ZM67.9534 458.594C67.9534 460.284 68.1072 461.607 68.4146 462.563L73.0683 453.356C72.5791 452.705 71.9013 452.38 71.0349 452.38C70.0706 452.38 69.316 452.892 68.771 453.918C68.2259 454.929 67.9534 456.488 67.9534 458.594ZM71.0349 464.807C72.0131 464.807 72.7748 464.302 73.3198 463.29C73.8648 462.265 74.1373 460.699 74.1373 458.594C74.1373 456.806 73.9627 455.421 73.6133 454.437L68.9596 463.727C69.4627 464.447 70.1545 464.807 71.0349 464.807Z" fill="url(#paint7_linear_122_130)" fill-opacity="0.6"/>
<path d="M71.0349 475.008C72.5302 475.008 73.6622 475.639 74.4308 476.9C75.2134 478.147 75.6047 479.962 75.6047 482.345C75.6047 484.728 75.2134 486.549 74.4308 487.81C73.6622 489.071 72.5302 489.701 71.0349 489.701C69.5536 489.701 68.4216 489.071 67.639 487.81C66.8564 486.549 66.4651 484.728 66.4651 482.345C66.4651 479.975 66.8564 478.16 67.639 476.9C68.4216 475.639 69.5536 475.008 71.0349 475.008ZM67.9534 482.345C67.9534 484.035 68.1072 485.358 68.4146 486.314L73.0683 477.107C72.5791 476.456 71.9013 476.131 71.0349 476.131C70.0706 476.131 69.316 476.643 68.771 477.669C68.2259 478.68 67.9534 480.239 67.9534 482.345ZM71.0349 488.558C72.0131 488.558 72.7748 488.053 73.3198 487.041C73.8648 486.016 74.1373 484.451 74.1373 482.345C74.1373 480.557 73.9627 479.172 73.6133 478.188L68.9596 487.478C69.4627 488.198 70.1545 488.558 71.0349 488.558Z" fill="url(#paint8_linear_122_130)" fill-opacity="0.6"/>
<path d="M72.2926 512.143H75.3741V513.245H67.3874V512.143H70.9511V500.464L67.5551 502.48L66.9682 501.544L71.1607 498.967H72.2926V512.143Z" fill="url(#paint9_linear_122_130)" fill-opacity="0.6"/>
<path d="M71.0349 522.511C72.5302 522.511 73.6622 523.141 74.4308 524.402C75.2134 525.649 75.6047 527.464 75.6047 529.847C75.6047 532.23 75.2134 534.052 74.4308 535.312C73.6622 536.573 72.5302 537.204 71.0349 537.204C69.5536 537.204 68.4216 536.573 67.639 535.312C66.8564 534.052 66.4651 532.23 66.4651 529.847C66.4651 527.478 66.8564 525.663 67.639 524.402C68.4216 523.141 69.5536 522.511 71.0349 522.511ZM67.9534 529.847C67.9534 531.537 68.1072 532.86 68.4146 533.816L73.0683 524.61C72.5791 523.958 71.9013 523.633 71.0349 523.633C70.0706 523.633 69.316 524.145 68.771 525.171C68.2259 526.182 67.9534 527.741 67.9534 529.847ZM71.0349 536.061C72.0131 536.061 72.7748 535.555 73.3198 534.543C73.8648 533.518 74.1373 531.953 74.1373 529.847C74.1373 528.059 73.9627 526.674 73.6133 525.69L68.9596 534.98C69.4627 535.7 70.1545 536.061 71.0349 536.061Z" fill="url(#paint10_linear_122_130)" fill-opacity="0.6"/>
<path d="M72.2926 559.645H75.3741V560.747H67.3874V559.645H70.9511V547.966L67.5551 549.982L66.9682 549.046L71.1607 546.469H72.2926V559.645Z" fill="url(#paint11_linear_122_130)" fill-opacity="0.6"/>
<path d="M72.2926 583.396H75.3741V584.498H67.3874V583.396H70.9511V571.717L67.5551 573.733L66.9682 572.798L71.1607 570.221H72.2926V583.396Z" fill="url(#paint12_linear_122_130)" fill-opacity="0.6"/>
<path d="M109.965 332.502C111.46 332.502 112.592 333.133 113.361 334.393C114.144 335.64 114.535 337.455 114.535 339.838C114.535 342.221 114.144 344.043 113.361 345.304C112.592 346.565 111.46 347.195 109.965 347.195C108.484 347.195 107.352 346.565 106.569 345.304C105.787 344.043 105.395 342.221 105.395 339.838C105.395 337.469 105.787 335.654 106.569 334.393C107.352 333.133 108.484 332.502 109.965 332.502ZM106.884 339.838C106.884 341.529 107.037 342.852 107.345 343.808L111.998 334.601C111.509 333.95 110.832 333.624 109.965 333.624C109.001 333.624 108.246 334.137 107.701 335.162C107.156 336.174 106.884 337.732 106.884 339.838ZM109.965 346.052C110.943 346.052 111.705 345.546 112.25 344.535C112.795 343.51 113.068 341.944 113.068 339.838C113.068 338.051 112.893 336.665 112.543 335.682L107.89 344.971C108.393 345.692 109.085 346.052 109.965 346.052Z" fill="url(#paint13_linear_122_130)" fill-opacity="0.6"/>
<path d="M111.223 369.637H114.304V370.738H106.318V369.637H109.881V357.957L106.485 359.973L105.898 359.038L110.091 356.461H111.223V369.637Z" fill="url(#paint14_linear_122_130)" fill-opacity="0.6"/>
<path d="M109.965 380.004C111.46 380.004 112.592 380.635 113.361 381.895C114.144 383.142 114.535 384.957 114.535 387.34C114.535 389.723 114.144 391.545 113.361 392.806C112.592 394.067 111.46 394.697 109.965 394.697C108.484 394.697 107.352 394.067 106.569 392.806C105.787 391.545 105.395 389.723 105.395 387.34C105.395 384.971 105.787 383.156 106.569 381.895C107.352 380.635 108.484 380.004 109.965 380.004ZM106.884 387.34C106.884 389.031 107.037 390.354 107.345 391.31L111.998 382.103C111.509 381.452 110.832 381.126 109.965 381.126C109.001 381.126 108.246 381.639 107.701 382.664C107.156 383.676 106.884 385.234 106.884 387.34ZM109.965 393.554C110.943 393.554 111.705 393.049 112.25 392.037C112.795 391.012 113.068 389.446 113.068 387.34C113.068 385.553 112.893 384.168 112.543 383.184L107.89 392.474C108.393 393.194 109.085 393.554 109.965 393.554Z" fill="url(#paint15_linear_122_130)" fill-opacity="0.6"/>
<path d="M109.965 403.755C111.46 403.755 112.592 404.386 113.361 405.646C114.144 406.893 114.535 408.708 114.535 411.091C114.535 413.474 114.144 415.296 113.361 416.557C112.592 417.818 111.46 418.448 109.965 418.448C108.484 418.448 107.352 417.818 106.569 416.557C105.787 415.296 105.395 413.474 105.395 411.091C105.395 408.722 105.787 406.907 106.569 405.646C107.352 404.386 108.484 403.755 109.965 403.755ZM106.884 411.091C106.884 412.782 107.037 414.105 107.345 415.061L111.998 405.854C111.509 405.203 110.832 404.878 109.965 404.878C109.001 404.878 108.246 405.39 107.701 406.415C107.156 407.427 106.884 408.985 106.884 411.091ZM109.965 417.305C110.943 417.305 111.705 416.8 112.25 415.788C112.795 414.763 113.068 413.197 113.068 411.091C113.068 409.304 112.893 407.919 112.543 406.935L107.89 416.225C108.393 416.945 109.085 417.305 109.965 417.305Z" fill="url(#paint16_linear_122_130)" fill-opacity="0.6"/>
<path d="M111.223 440.89H114.304V441.992H106.318V440.89H109.881V429.21L106.485 431.226L105.898 430.291L110.091 427.714H111.223V440.89Z" fill="url(#paint17_linear_122_130)" fill-opacity="0.6"/>
<path d="M109.965 451.257C111.46 451.257 112.592 451.888 113.361 453.149C114.144 454.396 114.535 456.211 114.535 458.594C114.535 460.977 114.144 462.798 113.361 464.059C112.592 465.32 111.46 465.95 109.965 465.95C108.484 465.95 107.352 465.32 106.569 464.059C105.787 462.798 105.395 460.977 105.395 458.594C105.395 456.224 105.787 454.409 106.569 453.149C107.352 451.888 108.484 451.257 109.965 451.257ZM106.884 458.594C106.884 460.284 107.037 461.607 107.345 462.563L111.998 453.356C111.509 452.705 110.832 452.38 109.965 452.38C109.001 452.38 108.246 452.892 107.701 453.918C107.156 454.929 106.884 456.488 106.884 458.594ZM109.965 464.807C110.943 464.807 111.705 464.302 112.25 463.29C112.795 462.265 113.068 460.699 113.068 458.594C113.068 456.806 112.893 455.421 112.543 454.437L107.89 463.727C108.393 464.447 109.085 464.807 109.965 464.807Z" fill="url(#paint18_linear_122_130)" fill-opacity="0.6"/>
<path d="M111.223 488.392H114.304V489.494H106.318V488.392H109.881V476.713L106.485 478.728L105.898 477.793L110.091 475.216H111.223V488.392Z" fill="url(#paint19_linear_122_130)" fill-opacity="0.6"/>
<path d="M109.965 498.76C111.46 498.76 112.592 499.39 113.361 500.651C114.144 501.898 114.535 503.713 114.535 506.096C114.535 508.479 114.144 510.301 113.361 511.561C112.592 512.822 111.46 513.453 109.965 513.453C108.484 513.453 107.352 512.822 106.569 511.561C105.787 510.301 105.395 508.479 105.395 506.096C105.395 503.726 105.787 501.911 106.569 500.651C107.352 499.39 108.484 498.76 109.965 498.76ZM106.884 506.096C106.884 507.786 107.037 509.109 107.345 510.065L111.998 500.859C111.509 500.207 110.832 499.882 109.965 499.882C109.001 499.882 108.246 500.394 107.701 501.42C107.156 502.431 106.884 503.99 106.884 506.096ZM109.965 512.31C110.943 512.31 111.705 511.804 112.25 510.792C112.795 509.767 113.068 508.202 113.068 506.096C113.068 504.308 112.893 502.923 112.543 501.939L107.89 511.229C108.393 511.949 109.085 512.31 109.965 512.31Z" fill="url(#paint20_linear_122_130)" fill-opacity="0.6"/>
<path d="M109.965 522.511C111.46 522.511 112.592 523.141 113.361 524.402C114.144 525.649 114.535 527.464 114.535 529.847C114.535 532.23 114.144 534.052 113.361 535.312C112.592 536.573 111.46 537.204 109.965 537.204C108.484 537.204 107.352 536.573 106.569 535.312C105.787 534.052 105.395 532.23 105.395 529.847C105.395 527.478 105.787 525.663 106.569 524.402C107.352 523.141 108.484 522.511 109.965 522.511ZM106.884 529.847C106.884 531.537 107.037 532.86 107.345 533.816L111.998 524.61C111.509 523.958 110.832 523.633 109.965 523.633C109.001 523.633 108.246 524.145 107.701 525.171C107.156 526.182 106.884 527.741 106.884 529.847ZM109.965 536.061C110.943 536.061 111.705 535.555 112.25 534.543C112.795 533.518 113.068 531.953 113.068 529.847C113.068 528.059 112.893 526.674 112.543 525.69L107.89 534.98C108.393 535.7 109.085 536.061 109.965 536.061Z" fill="url(#paint21_linear_122_130)" fill-opacity="0.6"/>
<path d="M111.223 559.645H114.304V560.747H106.318V559.645H109.881V547.966L106.485 549.982L105.898 549.046L110.091 546.469H111.223V559.645Z" fill="url(#paint22_linear_122_130)" fill-opacity="0.6"/>
<path d="M109.965 570.013C111.46 570.013 112.592 570.643 113.361 571.904C114.144 573.151 114.535 574.966 114.535 577.349C114.535 579.732 114.144 581.554 113.361 582.815C112.592 584.075 111.46 584.706 109.965 584.706C108.484 584.706 107.352 584.075 106.569 582.815C105.787 581.554 105.395 579.732 105.395 577.349C105.395 574.98 105.787 573.165 106.569 571.904C107.352 570.643 108.484 570.013 109.965 570.013ZM106.884 577.349C106.884 579.039 107.037 580.362 107.345 581.318L111.998 572.112C111.509 571.461 110.832 571.135 109.965 571.135C109.001 571.135 108.246 571.648 107.701 572.673C107.156 573.684 106.884 575.243 106.884 577.349ZM109.965 583.563C110.943 583.563 111.705 583.057 112.25 582.046C112.795 581.02 113.068 579.455 113.068 577.349C113.068 575.562 112.893 574.176 112.543 573.192L107.89 582.482C108.393 583.202 109.085 583.563 109.965 583.563Z" fill="url(#paint23_linear_122_130)" fill-opacity="0.6"/>
<path d="M111.223 607.148H114.304V608.249H106.318V607.148H109.881V595.468L106.485 597.484L105.898 596.549L110.091 593.972H111.223V607.148Z" fill="url(#paint24_linear_122_130)" fill-opacity="0.6"/>
<path d="M111.223 630.899H114.304V632H106.318V630.899H109.881V619.219L106.485 621.235L105.898 620.3L110.091 617.723H111.223V630.899Z" fill="url(#paint25_linear_122_130)" fill-opacity="0.6"/>
<path d="M51.5698 356.253C53.0651 356.253 54.1971 356.884 54.9657 358.144C55.7483 359.391 56.1396 361.206 56.1396 363.589C56.1396 365.972 55.7483 367.794 54.9657 369.055C54.1971 370.316 53.0651 370.946 51.5698 370.946C50.0885 370.946 48.9565 370.316 48.1739 369.055C47.3913 367.794 47 365.972 47 363.589C47 361.22 47.3913 359.405 48.1739 358.144C48.9565 356.884 50.0885 356.253 51.5698 356.253ZM48.4883 363.589C48.4883 365.28 48.6421 366.603 48.9495 367.559L53.6032 358.352C53.114 357.701 52.4363 357.375 51.5698 357.375C50.6055 357.375 49.8509 357.888 49.3059 358.913C48.7608 359.925 48.4883 361.483 48.4883 363.589ZM51.5698 369.803C52.5481 369.803 53.3097 369.297 53.8547 368.286C54.3997 367.261 54.6722 365.695 54.6722 363.589C54.6722 361.802 54.4976 360.417 54.1482 359.433L49.4945 368.722C49.9976 369.443 50.6894 369.803 51.5698 369.803Z" fill="url(#paint26_linear_122_130)" fill-opacity="0.6"/>
<path d="M51.5698 380.004C53.0651 380.004 54.1971 380.635 54.9657 381.895C55.7483 383.142 56.1396 384.957 56.1396 387.34C56.1396 389.723 55.7483 391.545 54.9657 392.806C54.1971 394.067 53.0651 394.697 51.5698 394.697C50.0885 394.697 48.9565 394.067 48.1739 392.806C47.3913 391.545 47 389.723 47 387.34C47 384.971 47.3913 383.156 48.1739 381.895C48.9565 380.635 50.0885 380.004 51.5698 380.004ZM48.4883 387.34C48.4883 389.031 48.6421 390.354 48.9495 391.31L53.6032 382.103C53.114 381.452 52.4363 381.126 51.5698 381.126C50.6055 381.126 49.8509 381.639 49.3059 382.664C48.7608 383.676 48.4883 385.234 48.4883 387.34ZM51.5698 393.554C52.5481 393.554 53.3097 393.049 53.8547 392.037C54.3997 391.012 54.6722 389.446 54.6722 387.34C54.6722 385.553 54.4976 384.168 54.1482 383.184L49.4945 392.474C49.9976 393.194 50.6894 393.554 51.5698 393.554Z" fill="url(#paint27_linear_122_130)" fill-opacity="0.6"/>
<path d="M52.8276 417.139H55.909V418.24H47.9223V417.139H51.486V405.459L48.09 407.475L47.5031 406.54L51.6956 403.963H52.8276V417.139Z" fill="url(#paint28_linear_122_130)" fill-opacity="0.6"/>
<path d="M51.5698 427.506C53.0651 427.506 54.1971 428.137 54.9657 429.398C55.7483 430.644 56.1396 432.459 56.1396 434.842C56.1396 437.225 55.7483 439.047 54.9657 440.308C54.1971 441.569 53.0651 442.199 51.5698 442.199C50.0885 442.199 48.9565 441.569 48.1739 440.308C47.3913 439.047 47 437.225 47 434.842C47 432.473 47.3913 430.658 48.1739 429.398C48.9565 428.137 50.0885 427.506 51.5698 427.506ZM48.4883 434.842C48.4883 436.533 48.6421 437.856 48.9495 438.812L53.6032 429.605C53.114 428.954 52.4363 428.629 51.5698 428.629C50.6055 428.629 49.8509 429.141 49.3059 430.166C48.7608 431.178 48.4883 432.737 48.4883 434.842ZM51.5698 441.056C52.5481 441.056 53.3097 440.551 53.8547 439.539C54.3997 438.514 54.6722 436.948 54.6722 434.842C54.6722 433.055 54.4976 431.67 54.1482 430.686L49.4945 439.976C49.9976 440.696 50.6894 441.056 51.5698 441.056Z" fill="url(#paint29_linear_122_130)" fill-opacity="0.6"/>
<path d="M52.8276 464.641H55.909V465.743H47.9223V464.641H51.486V452.962L48.09 454.977L47.5031 454.042L51.6956 451.465H52.8276V464.641Z" fill="url(#paint30_linear_122_130)" fill-opacity="0.6"/>
<path d="M52.8276 488.392H55.909V489.494H47.9223V488.392H51.486V476.713L48.09 478.728L47.5031 477.793L51.6956 475.216H52.8276V488.392Z" fill="url(#paint31_linear_122_130)" fill-opacity="0.6"/>
<path d="M91.7577 322.135H94.8392V323.236H86.8525V322.135H90.4162V310.455L87.0202 312.471L86.4333 311.536L90.6258 308.959H91.7577V322.135Z" fill="url(#paint32_linear_122_130)" fill-opacity="0.6"/>
<path d="M90.5 332.502C91.9953 332.502 93.1273 333.133 93.8959 334.393C94.6785 335.64 95.0698 337.455 95.0698 339.838C95.0698 342.221 94.6785 344.043 93.8959 345.304C93.1273 346.565 91.9953 347.195 90.5 347.195C89.0187 347.195 87.8867 346.565 87.1041 345.304C86.3215 344.043 85.9302 342.221 85.9302 339.838C85.9302 337.469 86.3215 335.654 87.1041 334.393C87.8867 333.133 89.0187 332.502 90.5 332.502ZM87.4185 339.838C87.4185 341.529 87.5723 342.852 87.8797 343.808L92.5334 334.601C92.0442 333.95 91.3664 333.624 90.5 333.624C89.5357 333.624 88.7811 334.137 88.2361 335.162C87.691 336.174 87.4185 337.732 87.4185 339.838ZM90.5 346.052C91.4782 346.052 92.2399 345.546 92.7849 344.535C93.3299 343.51 93.6024 341.944 93.6024 339.838C93.6024 338.051 93.4277 336.665 93.0784 335.682L88.4247 344.971C88.9278 345.692 89.6196 346.052 90.5 346.052Z" fill="url(#paint33_linear_122_130)" fill-opacity="0.6"/>
<path d="M91.7577 369.637H94.8392V370.738H86.8525V369.637H90.4162V357.957L87.0202 359.973L86.4333 359.038L90.6258 356.461H91.7577V369.637Z" fill="url(#paint34_linear_122_130)" fill-opacity="0.6"/>
<path d="M91.7577 393.388H94.8392V394.489H86.8525V393.388H90.4162V381.708L87.0202 383.724L86.4333 382.789L90.6258 380.212H91.7577V393.388Z" fill="url(#paint35_linear_122_130)" fill-opacity="0.6"/>
<path d="M90.5 403.755C91.9953 403.755 93.1273 404.386 93.8959 405.646C94.6785 406.893 95.0698 408.708 95.0698 411.091C95.0698 413.474 94.6785 415.296 93.8959 416.557C93.1273 417.818 91.9953 418.448 90.5 418.448C89.0187 418.448 87.8867 417.818 87.1041 416.557C86.3215 415.296 85.9302 413.474 85.9302 411.091C85.9302 408.722 86.3215 406.907 87.1041 405.646C87.8867 404.386 89.0187 403.755 90.5 403.755ZM87.4185 411.091C87.4185 412.782 87.5723 414.105 87.8797 415.061L92.5334 405.854C92.0442 405.203 91.3664 404.878 90.5 404.878C89.5357 404.878 88.7811 405.39 88.2361 406.415C87.691 407.427 87.4185 408.985 87.4185 411.091ZM90.5 417.305C91.4782 417.305 92.2399 416.8 92.7849 415.788C93.3299 414.763 93.6024 413.197 93.6024 411.091C93.6024 409.304 93.4277 407.919 93.0784 406.935L88.4247 416.225C88.9278 416.945 89.6196 417.305 90.5 417.305Z" fill="url(#paint36_linear_122_130)" fill-opacity="0.6"/>
<path d="M91.7577 440.89H94.8392V441.992H86.8525V440.89H90.4162V429.21L87.0202 431.226L86.4333 430.291L90.6258 427.714H91.7577V440.89Z" fill="url(#paint37_linear_122_130)" fill-opacity="0.6"/>
<path d="M91.7577 464.641H94.8392V465.743H86.8525V464.641H90.4162V452.962L87.0202 454.977L86.4333 454.042L90.6258 451.465H91.7577V464.641Z" fill="url(#paint38_linear_122_130)" fill-opacity="0.6"/>
<path d="M90.5 475.008C91.9953 475.008 93.1273 475.639 93.8959 476.9C94.6785 478.147 95.0698 479.962 95.0698 482.345C95.0698 484.728 94.6785 486.549 93.8959 487.81C93.1273 489.071 91.9953 489.701 90.5 489.701C89.0187 489.701 87.8867 489.071 87.1041 487.81C86.3215 486.549 85.9302 484.728 85.9302 482.345C85.9302 479.975 86.3215 478.16 87.1041 476.9C87.8867 475.639 89.0187 475.008 90.5 475.008ZM87.4185 482.345C87.4185 484.035 87.5723 485.358 87.8797 486.314L92.5334 477.107C92.0442 476.456 91.3664 476.131 90.5 476.131C89.5357 476.131 88.7811 476.643 88.2361 477.669C87.691 478.68 87.4185 480.239 87.4185 482.345ZM90.5 488.558C91.4782 488.558 92.2399 488.053 92.7849 487.041C93.3299 486.016 93.6024 484.451 93.6024 482.345C93.6024 480.557 93.4277 479.172 93.0784 478.188L88.4247 487.478C88.9278 488.198 89.6196 488.558 90.5 488.558Z" fill="url(#paint39_linear_122_130)" fill-opacity="0.6"/>
<path d="M91.7577 512.143H94.8392V513.245H86.8525V512.143H90.4162V500.464L87.0202 502.48L86.4333 501.544L90.6258 498.967H91.7577V512.143Z" fill="url(#paint40_linear_122_130)" fill-opacity="0.6"/>
<path d="M90.5 522.511C91.9953 522.511 93.1273 523.141 93.8959 524.402C94.6785 525.649 95.0698 527.464 95.0698 529.847C95.0698 532.23 94.6785 534.052 93.8959 535.312C93.1273 536.573 91.9953 537.204 90.5 537.204C89.0187 537.204 87.8867 536.573 87.1041 535.312C86.3215 534.052 85.9302 532.23 85.9302 529.847C85.9302 527.478 86.3215 525.663 87.1041 524.402C87.8867 523.141 89.0187 522.511 90.5 522.511ZM87.4185 529.847C87.4185 531.537 87.5723 532.86 87.8797 533.816L92.5334 524.61C92.0442 523.958 91.3664 523.633 90.5 523.633C89.5357 523.633 88.7811 524.145 88.2361 525.171C87.691 526.182 87.4185 527.741 87.4185 529.847ZM90.5 536.061C91.4782 536.061 92.2399 535.555 92.7849 534.543C93.3299 533.518 93.6024 531.953 93.6024 529.847C93.6024 528.059 93.4277 526.674 93.0784 525.69L88.4247 534.98C88.9278 535.7 89.6196 536.061 90.5 536.061Z" fill="url(#paint41_linear_122_130)" fill-opacity="0.6"/>
<path d="M129.43 308.751C130.926 308.751 132.057 309.381 132.826 310.642C133.609 311.889 134 313.704 134 316.087C134 318.47 133.609 320.292 132.826 321.553C132.057 322.814 130.926 323.444 129.43 323.444C127.949 323.444 126.817 322.814 126.034 321.553C125.252 320.292 124.86 318.47 124.86 316.087C124.86 313.718 125.252 311.903 126.034 310.642C126.817 309.381 127.949 308.751 129.43 308.751ZM126.349 316.087C126.349 317.777 126.502 319.101 126.81 320.057L131.464 310.85C130.974 310.199 130.297 309.873 129.43 309.873C128.466 309.873 127.711 310.386 127.166 311.411C126.621 312.423 126.349 313.981 126.349 316.087ZM129.43 322.301C130.408 322.301 131.17 321.795 131.715 320.784C132.26 319.759 132.533 318.193 132.533 316.087C132.533 314.3 132.358 312.914 132.009 311.931L127.355 321.22C127.858 321.941 128.55 322.301 129.43 322.301Z" fill="url(#paint42_linear_122_130)" fill-opacity="0.6"/>
<path d="M130.688 345.886H133.769V346.987H125.783V345.886H129.346V334.206L125.95 336.222L125.363 335.287L129.556 332.71H130.688V345.886Z" fill="url(#paint43_linear_122_130)" fill-opacity="0.6"/>
<path d="M130.688 369.637H133.769V370.738H125.783V369.637H129.346V357.957L125.95 359.973L125.363 359.038L129.556 356.461H130.688V369.637Z" fill="url(#paint44_linear_122_130)" fill-opacity="0.6"/>
<path d="M129.43 380.004C130.926 380.004 132.057 380.635 132.826 381.895C133.609 383.142 134 384.957 134 387.34C134 389.723 133.609 391.545 132.826 392.806C132.057 394.067 130.926 394.697 129.43 394.697C127.949 394.697 126.817 394.067 126.034 392.806C125.252 391.545 124.86 389.723 124.86 387.34C124.86 384.971 125.252 383.156 126.034 381.895C126.817 380.635 127.949 380.004 129.43 380.004ZM126.349 387.34C126.349 389.031 126.502 390.354 126.81 391.31L131.464 382.103C130.974 381.452 130.297 381.126 129.43 381.126C128.466 381.126 127.711 381.639 127.166 382.664C126.621 383.676 126.349 385.234 126.349 387.34ZM129.43 393.554C130.408 393.554 131.17 393.049 131.715 392.037C132.26 391.012 132.533 389.446 132.533 387.34C132.533 385.553 132.358 384.168 132.009 383.184L127.355 392.474C127.858 393.194 128.55 393.554 129.43 393.554Z" fill="url(#paint45_linear_122_130)" fill-opacity="0.6"/>
<path d="M129.43 403.755C130.926 403.755 132.057 404.386 132.826 405.646C133.609 406.893 134 408.708 134 411.091C134 413.474 133.609 415.296 132.826 416.557C132.057 417.818 130.926 418.448 129.43 418.448C127.949 418.448 126.817 417.818 126.034 416.557C125.252 415.296 124.86 413.474 124.86 411.091C124.86 408.722 125.252 406.907 126.034 405.646C126.817 404.386 127.949 403.755 129.43 403.755ZM126.349 411.091C126.349 412.782 126.502 414.105 126.81 415.061L131.464 405.854C130.974 405.203 130.297 404.878 129.43 404.878C128.466 404.878 127.711 405.39 127.166 406.415C126.621 407.427 126.349 408.985 126.349 411.091ZM129.43 417.305C130.408 417.305 131.17 416.8 131.715 415.788C132.26 414.763 132.533 413.197 132.533 411.091C132.533 409.304 132.358 407.919 132.009 406.935L127.355 416.225C127.858 416.945 128.55 417.305 129.43 417.305Z" fill="url(#paint46_linear_122_130)" fill-opacity="0.6"/>
<g opacity="0.6">
<path d="M957.93 -15C959.356 -15 960.436 -14.395 961.17 -13.1851C961.916 -11.9885 962.29 -10.2468 962.29 -7.95987C962.29 -5.67299 961.916 -3.9246 961.17 -2.71468C960.436 -1.50476 959.356 -0.899802 957.93 -0.899802C956.517 -0.899802 955.437 -1.50476 954.69 -2.71468C953.943 -3.9246 953.57 -5.67299 953.57 -7.95987C953.57 -10.2335 953.943 -11.9752 954.69 -13.1851C955.437 -14.395 956.517 -15 957.93 -15ZM954.99 -7.95987C954.99 -6.33778 955.137 -5.06804 955.43 -4.15063L959.87 -12.9857C959.403 -13.6106 958.756 -13.923 957.93 -13.923C957.01 -13.923 956.29 -13.4311 955.77 -12.4472C955.25 -11.4766 954.99 -9.98083 954.99 -7.95987ZM957.93 -1.99671C958.863 -1.99671 959.59 -2.482 960.11 -3.4526C960.63 -4.43649 960.89 -5.93891 960.89 -7.95987C960.89 -9.67503 960.723 -11.0046 960.39 -11.9486L955.95 -3.03378C956.43 -2.3424 957.09 -1.99671 957.93 -1.99671Z" fill="url(#paint47_linear_122_130)"/>
<path d="M959.13 20.6365H962.07V21.6936H954.45V20.6365H957.85V9.42819L954.61 11.3627L954.05 10.4653L958.05 7.99224H959.13V20.6365Z" fill="url(#paint48_linear_122_130)"/>
<path d="M957.93 30.5856C959.356 30.5856 960.436 31.1906 961.17 32.4005C961.916 33.5971 962.29 35.3389 962.29 37.6257C962.29 39.9126 961.916 41.661 961.17 42.8709C960.436 44.0808 959.356 44.6858 957.93 44.6858C956.517 44.6858 955.437 44.0808 954.69 42.8709C953.943 41.661 953.57 39.9126 953.57 37.6257C953.57 35.3522 953.943 33.6104 954.69 32.4005C955.437 31.1906 956.517 30.5856 957.93 30.5856ZM954.99 37.6257C954.99 39.2478 955.137 40.5176 955.43 41.435L959.87 32.5999C959.403 31.975 958.756 31.6626 957.93 31.6626C957.01 31.6626 956.29 32.1545 955.77 33.1384C955.25 34.109 954.99 35.6048 954.99 37.6257ZM957.93 43.5889C958.863 43.5889 959.59 43.1036 960.11 42.133C960.63 41.1491 960.89 39.6467 960.89 37.6257C960.89 35.9106 960.723 34.581 960.39 33.637L955.95 42.5518C956.43 43.2432 957.09 43.5889 957.93 43.5889Z" fill="url(#paint49_linear_122_130)"/>
<path d="M959.13 66.2221H962.07V67.2792H954.45V66.2221H957.85V55.0138L954.61 56.9483L954.05 56.0509L958.05 53.5778H959.13V66.2221Z" fill="url(#paint50_linear_122_130)"/>
<path d="M959.13 89.015H962.07V90.072H954.45V89.015H957.85V77.8066L954.61 79.7411L954.05 78.8437L958.05 76.3706H959.13V89.015Z" fill="url(#paint51_linear_122_130)"/>
<path d="M957.93 98.964C959.356 98.964 960.436 99.569 961.17 100.779C961.916 101.976 962.29 103.717 962.29 106.004C962.29 108.291 961.916 110.039 961.17 111.249C960.436 112.459 959.356 113.064 957.93 113.064C956.517 113.064 955.437 112.459 954.69 111.249C953.943 110.039 953.57 108.291 953.57 106.004C953.57 103.731 953.943 101.989 954.69 100.779C955.437 99.569 956.517 98.964 957.93 98.964ZM954.99 106.004C954.99 107.626 955.137 108.896 955.43 109.813L959.87 100.978C959.403 100.353 958.756 100.041 957.93 100.041C957.01 100.041 956.29 100.533 955.77 101.517C955.25 102.487 954.99 103.983 954.99 106.004ZM957.93 111.967C958.863 111.967 959.59 111.482 960.11 110.511C960.63 109.528 960.89 108.025 960.89 106.004C960.89 104.289 960.723 102.959 960.39 102.015L955.95 110.93C956.43 111.622 957.09 111.967 957.93 111.967Z" fill="url(#paint52_linear_122_130)"/>
<path d="M959.13 134.601H962.07V135.658H954.45V134.601H957.85V123.392L954.61 125.327L954.05 124.429L958.05 121.956H959.13V134.601Z" fill="url(#paint53_linear_122_130)"/>
<path d="M957.93 144.55C959.356 144.55 960.436 145.155 961.17 146.365C961.916 147.561 962.29 149.303 962.29 151.59C962.29 153.877 961.916 155.625 961.17 156.835C960.436 158.045 959.356 158.65 957.93 158.65C956.517 158.65 955.437 158.045 954.69 156.835C953.943 155.625 953.57 153.877 953.57 151.59C953.57 149.316 953.943 147.574 954.69 146.365C955.437 145.155 956.517 144.55 957.93 144.55ZM954.99 151.59C954.99 153.212 955.137 154.482 955.43 155.399L959.87 146.564C959.403 145.939 958.756 145.627 957.93 145.627C957.01 145.627 956.29 146.119 955.77 147.102C955.25 148.073 954.99 149.569 954.99 151.59ZM957.93 157.553C958.863 157.553 959.59 157.068 960.11 156.097C960.63 155.113 960.89 153.611 960.89 151.59C960.89 149.875 960.723 148.545 960.39 147.601L955.95 156.516C956.43 157.207 957.09 157.553 957.93 157.553Z" fill="url(#paint54_linear_122_130)"/>
<path d="M957.93 167.342C959.356 167.342 960.436 167.947 961.17 169.157C961.916 170.354 962.29 172.096 962.29 174.383C962.29 176.669 961.916 178.418 961.17 179.628C960.436 180.838 959.356 181.443 957.93 181.443C956.517 181.443 955.437 180.838 954.69 179.628C953.943 178.418 953.57 176.669 953.57 174.383C953.57 172.109 953.943 170.367 954.69 169.157C955.437 167.947 956.517 167.342 957.93 167.342ZM954.99 174.383C954.99 176.005 955.137 177.274 955.43 178.192L959.87 169.357C959.403 168.732 958.756 168.419 957.93 168.419C957.01 168.419 956.29 168.911 955.77 169.895C955.25 170.866 954.99 172.362 954.99 174.383ZM957.93 180.346C958.863 180.346 959.59 179.86 960.11 178.89C960.63 177.906 960.89 176.404 960.89 174.383C960.89 172.667 960.723 171.338 960.39 170.394L955.95 179.309C956.43 180 957.09 180.346 957.93 180.346Z" fill="url(#paint55_linear_122_130)"/>
<path d="M959.13 202.979H962.07V204.036H954.45V202.979H957.85V191.771L954.61 193.705L954.05 192.808L958.05 190.335H959.13V202.979Z" fill="url(#paint56_linear_122_130)"/>
<path d="M957.93 212.928C959.356 212.928 960.436 213.533 961.17 214.743C961.916 215.94 962.29 217.681 962.29 219.968C962.29 222.255 961.916 224.003 961.17 225.213C960.436 226.423 959.356 227.028 957.93 227.028C956.517 227.028 955.437 226.423 954.69 225.213C953.943 224.003 953.57 222.255 953.57 219.968C953.57 217.695 953.943 215.953 954.69 214.743C955.437 213.533 956.517 212.928 957.93 212.928ZM954.99 219.968C954.99 221.59 955.137 222.86 955.43 223.777L959.87 214.942C959.403 214.317 958.756 214.005 957.93 214.005C957.01 214.005 956.29 214.497 955.77 215.481C955.25 216.451 954.99 217.947 954.99 219.968ZM957.93 225.931C958.863 225.931 959.59 225.446 960.11 224.475C960.63 223.492 960.89 221.989 960.89 219.968C960.89 218.253 960.723 216.923 960.39 215.979L955.95 224.894C956.43 225.586 957.09 225.931 957.93 225.931Z" fill="url(#paint57_linear_122_130)"/>
<path d="M959.13 248.565H962.07V249.622H954.45V248.565H957.85V237.356L954.61 239.291L954.05 238.393L958.05 235.92H959.13V248.565Z" fill="url(#paint58_linear_122_130)"/>
<path d="M959.13 271.357H962.07V272.414H954.45V271.357H957.85V260.149L954.61 262.084L954.05 261.186L958.05 258.713H959.13V271.357Z" fill="url(#paint59_linear_122_130)"/>
<path d="M995.07 30.5856C996.497 30.5856 997.577 31.1906 998.31 32.4005C999.057 33.5971 999.43 35.3389 999.43 37.6257C999.43 39.9126 999.057 41.661 998.31 42.8709C997.577 44.0808 996.497 44.6858 995.07 44.6858C993.657 44.6858 992.577 44.0808 991.83 42.8709C991.084 41.661 990.71 39.9126 990.71 37.6257C990.71 35.3522 991.084 33.6104 991.83 32.4005C992.577 31.1906 993.657 30.5856 995.07 30.5856ZM992.13 37.6257C992.13 39.2478 992.277 40.5176 992.57 41.435L997.01 32.5999C996.543 31.975 995.897 31.6626 995.07 31.6626C994.15 31.6626 993.43 32.1545 992.91 33.1384C992.39 34.109 992.13 35.6048 992.13 37.6257ZM995.07 43.5889C996.003 43.5889 996.73 43.1036 997.25 42.133C997.77 41.1491 998.03 39.6467 998.03 37.6257C998.03 35.9106 997.863 34.581 997.53 33.637L993.09 42.5518C993.57 43.2432 994.23 43.5889 995.07 43.5889Z" fill="url(#paint60_linear_122_130)"/>
<path d="M996.27 66.2221H999.21V67.2792H991.59V66.2221H994.99V55.0138L991.75 56.9483L991.19 56.0509L995.19 53.5778H996.27V66.2221Z" fill="url(#paint61_linear_122_130)"/>
<path d="M995.07 76.1712C996.497 76.1712 997.577 76.7762 998.31 77.9861C999.057 79.1827 999.43 80.9245 999.43 83.2113C999.43 85.4982 999.057 87.2466 998.31 88.4565C997.577 89.6664 996.497 90.2714 995.07 90.2714C993.657 90.2714 992.577 89.6664 991.83 88.4565C991.084 87.2466 990.71 85.4982 990.71 83.2113C990.71 80.9378 991.084 79.196 991.83 77.9861C992.577 76.7762 993.657 76.1712 995.07 76.1712ZM992.13 83.2113C992.13 84.8334 992.277 86.1032 992.57 87.0206L997.01 78.1855C996.543 77.5606 995.897 77.2482 995.07 77.2482C994.15 77.2482 993.43 77.7401 992.91 78.724C992.39 79.6946 992.13 81.1904 992.13 83.2113ZM995.07 89.1745C996.003 89.1745 996.73 88.6892 997.25 87.7186C997.77 86.7347 998.03 85.2323 998.03 83.2113C998.03 81.4962 997.863 80.1666 997.53 79.2226L993.09 88.1374C993.57 88.8288 994.23 89.1745 995.07 89.1745Z" fill="url(#paint62_linear_122_130)"/>
<path d="M995.07 98.964C996.497 98.964 997.577 99.569 998.31 100.779C999.057 101.976 999.43 103.717 999.43 106.004C999.43 108.291 999.057 110.039 998.31 111.249C997.577 112.459 996.497 113.064 995.07 113.064C993.657 113.064 992.577 112.459 991.83 111.249C991.084 110.039 990.71 108.291 990.71 106.004C990.71 103.731 991.084 101.989 991.83 100.779C992.577 99.569 993.657 98.964 995.07 98.964ZM992.13 106.004C992.13 107.626 992.277 108.896 992.57 109.813L997.01 100.978C996.543 100.353 995.897 100.041 995.07 100.041C994.15 100.041 993.43 100.533 992.91 101.517C992.39 102.487 992.13 103.983 992.13 106.004ZM995.07 111.967C996.003 111.967 996.73 111.482 997.25 110.511C997.77 109.528 998.03 108.025 998.03 106.004C998.03 104.289 997.863 102.959 997.53 102.015L993.09 110.93C993.57 111.622 994.23 111.967 995.07 111.967Z" fill="url(#paint63_linear_122_130)"/>
<path d="M996.27 134.601H999.21V135.658H991.59V134.601H994.99V123.392L991.75 125.327L991.19 124.429L995.19 121.956H996.27V134.601Z" fill="url(#paint64_linear_122_130)"/>
<path d="M995.07 144.55C996.497 144.55 997.577 145.155 998.31 146.365C999.057 147.561 999.43 149.303 999.43 151.59C999.43 153.877 999.057 155.625 998.31 156.835C997.577 158.045 996.497 158.65 995.07 158.65C993.657 158.65 992.577 158.045 991.83 156.835C991.084 155.625 990.71 153.877 990.71 151.59C990.71 149.316 991.084 147.574 991.83 146.365C992.577 145.155 993.657 144.55 995.07 144.55ZM992.13 151.59C992.13 153.212 992.277 154.482 992.57 155.399L997.01 146.564C996.543 145.939 995.897 145.627 995.07 145.627C994.15 145.627 993.43 146.119 992.91 147.102C992.39 148.073 992.13 149.569 992.13 151.59ZM995.07 157.553C996.003 157.553 996.73 157.068 997.25 156.097C997.77 155.113 998.03 153.611 998.03 151.59C998.03 149.875 997.863 148.545 997.53 147.601L993.09 156.516C993.57 157.207 994.23 157.553 995.07 157.553Z" fill="url(#paint65_linear_122_130)"/>
<path d="M996.27 180.186H999.21V181.243H991.59V180.186H994.99V168.978L991.75 170.912L991.19 170.015L995.19 167.542H996.27V180.186Z" fill="url(#paint66_linear_122_130)"/>
<path d="M995.07 190.135C996.497 190.135 997.577 190.74 998.31 191.95C999.057 193.147 999.43 194.888 999.43 197.175C999.43 199.462 999.057 201.211 998.31 202.421C997.577 203.63 996.497 204.235 995.07 204.235C993.657 204.235 992.577 203.63 991.83 202.421C991.084 201.211 990.71 199.462 990.71 197.175C990.71 194.902 991.084 193.16 991.83 191.95C992.577 190.74 993.657 190.135 995.07 190.135ZM992.13 197.175C992.13 198.797 992.277 200.067 992.57 200.985L997.01 192.15C996.543 191.525 995.897 191.212 995.07 191.212C994.15 191.212 993.43 191.704 992.91 192.688C992.39 193.659 992.13 195.154 992.13 197.175ZM995.07 203.139C996.003 203.139 996.73 202.653 997.25 201.683C997.77 200.699 998.03 199.196 998.03 197.175C998.03 195.46 997.863 194.131 997.53 193.187L993.09 202.101C993.57 202.793 994.23 203.139 995.07 203.139Z" fill="url(#paint67_linear_122_130)"/>
<path d="M995.07 212.928C996.497 212.928 997.577 213.533 998.31 214.743C999.057 215.94 999.43 217.681 999.43 219.968C999.43 222.255 999.057 224.003 998.31 225.213C997.577 226.423 996.497 227.028 995.07 227.028C993.657 227.028 992.577 226.423 991.83 225.213C991.084 224.003 990.71 222.255 990.71 219.968C990.71 217.695 991.084 215.953 991.83 214.743C992.577 213.533 993.657 212.928 995.07 212.928ZM992.13 219.968C992.13 221.59 992.277 222.86 992.57 223.777L997.01 214.942C996.543 214.317 995.897 214.005 995.07 214.005C994.15 214.005 993.43 214.497 992.91 215.481C992.39 216.451 992.13 217.947 992.13 219.968ZM995.07 225.931C996.003 225.931 996.73 225.446 997.25 224.475C997.77 223.492 998.03 221.989 998.03 219.968C998.03 218.253 997.863 216.923 997.53 215.979L993.09 224.894C993.57 225.586 994.23 225.931 995.07 225.931Z" fill="url(#paint68_linear_122_130)"/>
<path d="M996.27 248.565H999.21V249.622H991.59V248.565H994.99V237.356L991.75 239.291L991.19 238.393L995.19 235.92H996.27V248.565Z" fill="url(#paint69_linear_122_130)"/>
<path d="M995.07 258.514C996.497 258.514 997.577 259.119 998.31 260.329C999.057 261.525 999.43 263.267 999.43 265.554C999.43 267.841 999.057 269.589 998.31 270.799C997.577 272.009 996.497 272.614 995.07 272.614C993.657 272.614 992.577 272.009 991.83 270.799C991.084 269.589 990.71 267.841 990.71 265.554C990.71 263.28 991.084 261.538 991.83 260.329C992.577 259.119 993.657 258.514 995.07 258.514ZM992.13 265.554C992.13 267.176 992.277 268.446 992.57 269.363L997.01 260.528C996.543 259.903 995.897 259.591 995.07 259.591C994.15 259.591 993.43 260.083 992.91 261.066C992.39 262.037 992.13 263.533 992.13 265.554ZM995.07 271.517C996.003 271.517 996.73 271.032 997.25 270.061C997.77 269.077 998.03 267.575 998.03 265.554C998.03 263.839 997.863 262.509 997.53 261.565L993.09 270.48C993.57 271.171 994.23 271.517 995.07 271.517Z" fill="url(#paint70_linear_122_130)"/>
<path d="M996.27 294.15H999.21V295.207H991.59V294.15H994.99V282.942L991.75 284.876L991.19 283.979L995.19 281.506H996.27V294.15Z" fill="url(#paint71_linear_122_130)"/>
<path d="M996.27 316.943H999.21V318H991.59V316.943H994.99V305.735L991.75 307.669L991.19 306.772L995.19 304.299H996.27V316.943Z" fill="url(#paint72_linear_122_130)"/>
<path d="M939.36 53.3784C940.786 53.3784 941.866 53.9834 942.599 55.1933C943.346 56.3899 943.719 58.1317 943.719 60.4185C943.719 62.7054 943.346 64.4538 942.599 65.6637C941.866 66.8736 940.786 67.4786 939.36 67.4786C937.946 67.4786 936.867 66.8736 936.12 65.6637C935.373 64.4538 935 62.7054 935 60.4185C935 58.145 935.373 56.4032 936.12 55.1933C936.867 53.9834 937.946 53.3784 939.36 53.3784ZM936.42 60.4185C936.42 62.0406 936.567 63.3104 936.86 64.2278L941.3 55.3927C940.833 54.7678 940.186 54.4554 939.36 54.4554C938.44 54.4554 937.72 54.9473 937.2 55.9312C936.68 56.9018 936.42 58.3976 936.42 60.4185ZM939.36 66.3817C940.293 66.3817 941.02 65.8964 941.54 64.9258C942.06 63.9419 942.319 62.4395 942.319 60.4185C942.319 58.7034 942.153 57.3738 941.82 56.4298L937.38 65.3446C937.86 66.036 938.52 66.3817 939.36 66.3817Z" fill="url(#paint73_linear_122_130)"/>
<path d="M939.36 76.1712C940.786 76.1712 941.866 76.7762 942.599 77.9861C943.346 79.1827 943.719 80.9245 943.719 83.2113C943.719 85.4982 943.346 87.2466 942.599 88.4565C941.866 89.6664 940.786 90.2714 939.36 90.2714C937.946 90.2714 936.867 89.6664 936.12 88.4565C935.373 87.2466 935 85.4982 935 83.2113C935 80.9378 935.373 79.196 936.12 77.9861C936.867 76.7762 937.946 76.1712 939.36 76.1712ZM936.42 83.2113C936.42 84.8334 936.567 86.1032 936.86 87.0206L941.3 78.1855C940.833 77.5606 940.186 77.2482 939.36 77.2482C938.44 77.2482 937.72 77.7401 937.2 78.724C936.68 79.6946 936.42 81.1904 936.42 83.2113ZM939.36 89.1745C940.293 89.1745 941.02 88.6892 941.54 87.7186C942.06 86.7347 942.319 85.2323 942.319 83.2113C942.319 81.4962 942.153 80.1666 941.82 79.2226L937.38 88.1374C937.86 88.8288 938.52 89.1745 939.36 89.1745Z" fill="url(#paint74_linear_122_130)"/>
<path d="M940.56 111.808H943.499V112.865H935.88V111.808H939.28V100.599L936.04 102.534L935.48 101.636L939.48 99.1635H940.56V111.808Z" fill="url(#paint75_linear_122_130)"/>
<path d="M939.36 121.757C940.786 121.757 941.866 122.362 942.599 123.572C943.346 124.768 943.719 126.51 943.719 128.797C943.719 131.084 943.346 132.832 942.599 134.042C941.866 135.252 940.786 135.857 939.36 135.857C937.946 135.857 936.867 135.252 936.12 134.042C935.373 132.832 935 131.084 935 128.797C935 126.523 935.373 124.782 936.12 123.572C936.867 122.362 937.946 121.757 939.36 121.757ZM936.42 128.797C936.42 130.419 936.567 131.689 936.86 132.606L941.3 123.771C940.833 123.146 940.186 122.834 939.36 122.834C938.44 122.834 937.72 123.326 937.2 124.31C936.68 125.28 936.42 126.776 936.42 128.797ZM939.36 134.76C940.293 134.76 941.02 134.275 941.54 133.304C942.06 132.32 942.319 130.818 942.319 128.797C942.319 127.082 942.153 125.752 941.82 124.808L937.38 133.723C937.86 134.414 938.52 134.76 939.36 134.76Z" fill="url(#paint76_linear_122_130)"/>
<path d="M940.56 157.393H943.499V158.45H935.88V157.393H939.28V146.185L936.04 148.12L935.48 147.222L939.48 144.749H940.56V157.393Z" fill="url(#paint77_linear_122_130)"/>
<path d="M940.56 180.186H943.499V181.243H935.88V180.186H939.28V168.978L936.04 170.912L935.48 170.015L939.48 167.542H940.56V180.186Z" fill="url(#paint78_linear_122_130)"/>
<path d="M977.7 20.6365H980.64V21.6936H973.02V20.6365H976.42V9.42819L973.18 11.3627L972.62 10.4653L976.62 7.99224H977.7V20.6365Z" fill="url(#paint79_linear_122_130)"/>
<path d="M976.5 30.5856C977.927 30.5856 979.006 31.1906 979.74 32.4005C980.486 33.5971 980.86 35.3389 980.86 37.6257C980.86 39.9126 980.486 41.661 979.74 42.8709C979.006 44.0808 977.927 44.6858 976.5 44.6858C975.087 44.6858 974.007 44.0808 973.26 42.8709C972.514 41.661 972.14 39.9126 972.14 37.6257C972.14 35.3522 972.514 33.6104 973.26 32.4005C974.007 31.1906 975.087 30.5856 976.5 30.5856ZM973.56 37.6257C973.56 39.2478 973.707 40.5176 974 41.435L978.44 32.5999C977.973 31.975 977.327 31.6626 976.5 31.6626C975.58 31.6626 974.86 32.1545 974.34 33.1384C973.82 34.109 973.56 35.6048 973.56 37.6257ZM976.5 43.5889C977.433 43.5889 978.16 43.1036 978.68 42.133C979.2 41.1491 979.46 39.6467 979.46 37.6257C979.46 35.9106 979.293 34.581 978.96 33.637L974.52 42.5518C975 43.2432 975.66 43.5889 976.5 43.5889Z" fill="url(#paint80_linear_122_130)"/>
<path d="M977.7 66.2221H980.64V67.2792H973.02V66.2221H976.42V55.0138L973.18 56.9483L972.62 56.0509L976.62 53.5778H977.7V66.2221Z" fill="url(#paint81_linear_122_130)"/>
<path d="M977.7 89.015H980.64V90.072H973.02V89.015H976.42V77.8066L973.18 79.7411L972.62 78.8437L976.62 76.3706H977.7V89.015Z" fill="url(#paint82_linear_122_130)"/>
<path d="M976.5 98.964C977.927 98.964 979.006 99.569 979.74 100.779C980.486 101.976 980.86 103.717 980.86 106.004C980.86 108.291 980.486 110.039 979.74 111.249C979.006 112.459 977.927 113.064 976.5 113.064C975.087 113.064 974.007 112.459 973.26 111.249C972.514 110.039 972.14 108.291 972.14 106.004C972.14 103.731 972.514 101.989 973.26 100.779C974.007 99.569 975.087 98.964 976.5 98.964ZM973.56 106.004C973.56 107.626 973.707 108.896 974 109.813L978.44 100.978C977.973 100.353 977.327 100.041 976.5 100.041C975.58 100.041 974.86 100.533 974.34 101.517C973.82 102.487 973.56 103.983 973.56 106.004ZM976.5 111.967C977.433 111.967 978.16 111.482 978.68 110.511C979.2 109.528 979.46 108.025 979.46 106.004C979.46 104.289 979.293 102.959 978.96 102.015L974.52 110.93C975 111.622 975.66 111.967 976.5 111.967Z" fill="url(#paint83_linear_122_130)"/>
<path d="M977.7 134.601H980.64V135.658H973.02V134.601H976.42V123.392L973.18 125.327L972.62 124.429L976.62 121.956H977.7V134.601Z" fill="url(#paint84_linear_122_130)"/>
<path d="M977.7 157.393H980.64V158.45H973.02V157.393H976.42V146.185L973.18 148.12L972.62 147.222L976.62 144.749H977.7V157.393Z" fill="url(#paint85_linear_122_130)"/>
<path d="M976.5 167.342C977.927 167.342 979.006 167.947 979.74 169.157C980.486 170.354 980.86 172.096 980.86 174.383C980.86 176.669 980.486 178.418 979.74 179.628C979.006 180.838 977.927 181.443 976.5 181.443C975.087 181.443 974.007 180.838 973.26 179.628C972.514 178.418 972.14 176.669 972.14 174.383C972.14 172.109 972.514 170.367 973.26 169.157C974.007 167.947 975.087 167.342 976.5 167.342ZM973.56 174.383C973.56 176.005 973.707 177.274 974 178.192L978.44 169.357C977.973 168.732 977.327 168.419 976.5 168.419C975.58 168.419 974.86 168.911 974.34 169.895C973.82 170.866 973.56 172.362 973.56 174.383ZM976.5 180.346C977.433 180.346 978.16 179.86 978.68 178.89C979.2 177.906 979.46 176.404 979.46 174.383C979.46 172.667 979.293 171.338 978.96 170.394L974.52 179.309C975 180 975.66 180.346 976.5 180.346Z" fill="url(#paint86_linear_122_130)"/>
<path d="M977.7 202.979H980.64V204.036H973.02V202.979H976.42V191.771L973.18 193.705L972.62 192.808L976.62 190.335H977.7V202.979Z" fill="url(#paint87_linear_122_130)"/>
<path d="M976.5 212.928C977.927 212.928 979.006 213.533 979.74 214.743C980.486 215.94 980.86 217.681 980.86 219.968C980.86 222.255 980.486 224.003 979.74 225.213C979.006 226.423 977.927 227.028 976.5 227.028C975.087 227.028 974.007 226.423 973.26 225.213C972.514 224.003 972.14 222.255 972.14 219.968C972.14 217.695 972.514 215.953 973.26 214.743C974.007 213.533 975.087 212.928 976.5 212.928ZM973.56 219.968C973.56 221.59 973.707 222.86 974 223.777L978.44 214.942C977.973 214.317 977.327 214.005 976.5 214.005C975.58 214.005 974.86 214.497 974.34 215.481C973.82 216.451 973.56 217.947 973.56 219.968ZM976.5 225.931C977.433 225.931 978.16 225.446 978.68 224.475C979.2 223.492 979.46 221.989 979.46 219.968C979.46 218.253 979.293 216.923 978.96 215.979L974.52 224.894C975 225.586 975.66 225.931 976.5 225.931Z" fill="url(#paint88_linear_122_130)"/>
<path d="M1013.64 7.7928C1015.07 7.7928 1016.15 8.39776 1016.88 9.60768C1017.63 10.8043 1018 12.5461 1018 14.8329C1018 17.1198 1017.63 18.8682 1016.88 20.0781C1016.15 21.288 1015.07 21.893 1013.64 21.893C1012.23 21.893 1011.15 21.288 1010.4 20.0781C1009.65 18.8682 1009.28 17.1198 1009.28 14.8329C1009.28 12.5593 1009.65 10.8176 1010.4 9.60768C1011.15 8.39776 1012.23 7.7928 1013.64 7.7928ZM1010.7 14.8329C1010.7 16.455 1010.85 17.7248 1011.14 18.6422L1015.58 9.80712C1015.11 9.18221 1014.47 8.86976 1013.64 8.86976C1012.72 8.86976 1012 9.36171 1011.48 10.3456C1010.96 11.3162 1010.7 12.812 1010.7 14.8329ZM1013.64 20.7961C1014.57 20.7961 1015.3 20.3108 1015.82 19.3402C1016.34 18.3563 1016.6 16.8539 1016.6 14.8329C1016.6 13.1178 1016.43 11.7882 1016.1 10.8442L1011.66 19.759C1012.14 20.4504 1012.8 20.7961 1013.64 20.7961Z" fill="url(#paint89_linear_122_130)"/>
<path d="M1014.84 43.4293H1017.78V44.4864H1010.16V43.4293H1013.56V32.221L1010.32 34.1555L1009.76 33.2581L1013.76 30.785H1014.84V43.4293Z" fill="url(#paint90_linear_122_130)"/>
<path d="M1014.84 66.2221H1017.78V67.2792H1010.16V66.2221H1013.56V55.0138L1010.32 56.9483L1009.76 56.0509L1013.76 53.5778H1014.84V66.2221Z" fill="url(#paint91_linear_122_130)"/>
<path d="M1013.64 76.1712C1015.07 76.1712 1016.15 76.7762 1016.88 77.9861C1017.63 79.1827 1018 80.9245 1018 83.2113C1018 85.4982 1017.63 87.2466 1016.88 88.4565C1016.15 89.6664 1015.07 90.2714 1013.64 90.2714C1012.23 90.2714 1011.15 89.6664 1010.4 88.4565C1009.65 87.2466 1009.28 85.4982 1009.28 83.2113C1009.28 80.9378 1009.65 79.196 1010.4 77.9861C1011.15 76.7762 1012.23 76.1712 1013.64 76.1712ZM1010.7 83.2113C1010.7 84.8334 1010.85 86.1032 1011.14 87.0206L1015.58 78.1855C1015.11 77.5606 1014.47 77.2482 1013.64 77.2482C1012.72 77.2482 1012 77.7401 1011.48 78.724C1010.96 79.6946 1010.7 81.1904 1010.7 83.2113ZM1013.64 89.1745C1014.57 89.1745 1015.3 88.6892 1015.82 87.7186C1016.34 86.7347 1016.6 85.2323 1016.6 83.2113C1016.6 81.4962 1016.43 80.1666 1016.1 79.2226L1011.66 88.1374C1012.14 88.8288 1012.8 89.1745 1013.64 89.1745Z" fill="url(#paint92_linear_122_130)"/>
<path d="M1013.64 98.964C1015.07 98.964 1016.15 99.569 1016.88 100.779C1017.63 101.976 1018 103.717 1018 106.004C1018 108.291 1017.63 110.039 1016.88 111.249C1016.15 112.459 1015.07 113.064 1013.64 113.064C1012.23 113.064 1011.15 112.459 1010.4 111.249C1009.65 110.039 1009.28 108.291 1009.28 106.004C1009.28 103.731 1009.65 101.989 1010.4 100.779C1011.15 99.569 1012.23 98.964 1013.64 98.964ZM1010.7 106.004C1010.7 107.626 1010.85 108.896 1011.14 109.813L1015.58 100.978C1015.11 100.353 1014.47 100.041 1013.64 100.041C1012.72 100.041 1012 100.533 1011.48 101.517C1010.96 102.487 1010.7 103.983 1010.7 106.004ZM1013.64 111.967C1014.57 111.967 1015.3 111.482 1015.82 110.511C1016.34 109.528 1016.6 108.025 1016.6 106.004C1016.6 104.289 1016.43 102.959 1016.1 102.015L1011.66 110.93C1012.14 111.622 1012.8 111.967 1013.64 111.967Z" fill="url(#paint93_linear_122_130)"/>
</g>
</g>
<defs>
<filter id="filter0_f_122_130" x="-520.19" y="-701.19" width="2141.38" height="1500.38" filterUnits="userSpaceOnUse" color-interpolation-filters="sRGB">
<feFlood flood-opacity="0" result="BackgroundImageFix"/>
<feBlend mode="normal" in="SourceGraphic" in2="BackgroundImageFix" result="shape"/>
<feGaussianBlur stdDeviation="200.095" result="effect1_foregroundBlur_122_130"/>
</filter>
<linearGradient id="paint0_linear_122_130" x1="90.5" y1="285" x2="90.5" y2="596.381" gradientUnits="userSpaceOnUse">
<stop stop-color="#F7DD43"/>
<stop offset="1" stop-color="#F7DD43" stop-opacity="0"/>
</linearGradient>
<linearGradient id="paint1_linear_122_130" x1="90.5" y1="285" x2="90.5" y2="596.381" gradientUnits="userSpaceOnUse">
<stop stop-color="#F7DD43"/>
<stop offset="1" stop-color="#F7DD43" stop-opacity="0"/>
</linearGradient>
<linearGradient id="paint2_linear_122_130" x1="90.5" y1="285" x2="90.5" y2="596.381" gradientUnits="userSpaceOnUse">
<stop stop-color="#F7DD43"/>
<stop offset="1" stop-color="#F7DD43" stop-opacity="0"/>
</linearGradient>
<linearGradient id="paint3_linear_122_130" x1="90.5" y1="285" x2="90.5" y2="596.381" gradientUnits="userSpaceOnUse">
<stop stop-color="#F7DD43"/>
<stop offset="1" stop-color="#F7DD43" stop-opacity="0"/>
</linearGradient>
<linearGradient id="paint4_linear_122_130" x1="90.5" y1="285" x2="90.5" y2="596.381" gradientUnits="userSpaceOnUse">
<stop stop-color="#F7DD43"/>
<stop offset="1" stop-color="#F7DD43" stop-opacity="0"/>
</linearGradient>
<linearGradient id="paint5_linear_122_130" x1="90.5" y1="285" x2="90.5" y2="596.381" gradientUnits="userSpaceOnUse">
<stop stop-color="#F7DD43"/>
<stop offset="1" stop-color="#F7DD43" stop-opacity="0"/>
</linearGradient>
<linearGradient id="paint6_linear_122_130" x1="90.5" y1="285" x2="90.5" y2="596.381" gradientUnits="userSpaceOnUse">
<stop stop-color="#F7DD43"/>
<stop offset="1" stop-color="#F7DD43" stop-opacity="0"/>
</linearGradient>
<linearGradient id="paint7_linear_122_130" x1="90.5" y1="285" x2="90.5" y2="596.381" gradientUnits="userSpaceOnUse">
<stop stop-color="#F7DD43"/>
<stop offset="1" stop-color="#F7DD43" stop-opacity="0"/>
</linearGradient>
<linearGradient id="paint8_linear_122_130" x1="90.5" y1="285" x2="90.5" y2="596.381" gradientUnits="userSpaceOnUse">
<stop stop-color="#F7DD43"/>
<stop offset="1" stop-color="#F7DD43" stop-opacity="0"/>
</linearGradient>
<linearGradient id="paint9_linear_122_130" x1="90.5" y1="285" x2="90.5" y2="596.381" gradientUnits="userSpaceOnUse">
<stop stop-color="#F7DD43"/>
<stop offset="1" stop-color="#F7DD43" stop-opacity="0"/>
</linearGradient>
<linearGradient id="paint10_linear_122_130" x1="90.5" y1="285" x2="90.5" y2="596.381" gradientUnits="userSpaceOnUse">
<stop stop-color="#F7DD43"/>
<stop offset="1" stop-color="#F7DD43" stop-opacity="0"/>
</linearGradient>
<linearGradient id="paint11_linear_122_130" x1="90.5" y1="285" x2="90.5" y2="596.381" gradientUnits="userSpaceOnUse">
<stop stop-color="#F7DD43"/>
<stop offset="1" stop-color="#F7DD43" stop-opacity="0"/>
</linearGradient>
<linearGradient id="paint12_linear_122_130" x1="90.5" y1="285" x2="90.5" y2="596.381" gradientUnits="userSpaceOnUse">
<stop stop-color="#F7DD43"/>
<stop offset="1" stop-color="#F7DD43" stop-opacity="0"/>
</linearGradient>
<linearGradient id="paint13_linear_122_130" x1="90.5" y1="285" x2="90.5" y2="596.381" gradientUnits="userSpaceOnUse">
<stop stop-color="#F7DD43"/>
<stop offset="1" stop-color="#F7DD43" stop-opacity="0"/>
</linearGradient>
<linearGradient id="paint14_linear_122_130" x1="90.5" y1="285" x2="90.5" y2="596.381" gradientUnits="userSpaceOnUse">
<stop stop-color="#F7DD43"/>
<stop offset="1" stop-color="#F7DD43" stop-opacity="0"/>
</linearGradient>
<linearGradient id="paint15_linear_122_130" x1="90.5" y1="285" x2="90.5" y2="596.381" gradientUnits="userSpaceOnUse">
<stop stop-color="#F7DD43"/>
<stop offset="1" stop-color="#F7DD43" stop-opacity="0"/>
</linearGradient>
<linearGradient id="paint16_linear_122_130" x1="90.5" y1="285" x2="90.5" y2="596.381" gradientUnits="userSpaceOnUse">
<stop stop-color="#F7DD43"/>
<stop offset="1" stop-color="#F7DD43" stop-opacity="0"/>
</linearGradient>
<linearGradient id="paint17_linear_122_130" x1="90.5" y1="285" x2="90.5" y2="596.381" gradientUnits="userSpaceOnUse">
<stop stop-color="#F7DD43"/>
<stop offset="1" stop-color="#F7DD43" stop-opacity="0"/>
</linearGradient>
<linearGradient id="paint18_linear_122_130" x1="90.5" y1="285" x2="90.5" y2="596.381" gradientUnits="userSpaceOnUse">
<stop stop-color="#F7DD43"/>
<stop offset="1" stop-color="#F7DD43" stop-opacity="0"/>
</linearGradient>
<linearGradient id="paint19_linear_122_130" x1="90.5" y1="285" x2="90.5" y2="596.381" gradientUnits="userSpaceOnUse">
<stop stop-color="#F7DD43"/>
<stop offset="1" stop-color="#F7DD43" stop-opacity="0"/>
</linearGradient>
<linearGradient id="paint20_linear_122_130" x1="90.5" y1="285" x2="90.5" y2="596.381" gradientUnits="userSpaceOnUse">
<stop stop-color="#F7DD43"/>
<stop offset="1" stop-color="#F7DD43" stop-opacity="0"/>
</linearGradient>
<linearGradient id="paint21_linear_122_130" x1="90.5" y1="285" x2="90.5" y2="596.381" gradientUnits="userSpaceOnUse">
<stop stop-color="#F7DD43"/>
<stop offset="1" stop-color="#F7DD43" stop-opacity="0"/>
</linearGradient>
<linearGradient id="paint22_linear_122_130" x1="90.5" y1="285" x2="90.5" y2="596.381" gradientUnits="userSpaceOnUse">
<stop stop-color="#F7DD43"/>
<stop offset="1" stop-color="#F7DD43" stop-opacity="0"/>
</linearGradient>
<linearGradient id="paint23_linear_122_130" x1="90.5" y1="285" x2="90.5" y2="596.381" gradientUnits="userSpaceOnUse">
<stop stop-color="#F7DD43"/>
<stop offset="1" stop-color="#F7DD43" stop-opacity="0"/>
</linearGradient>
<linearGradient id="paint24_linear_122_130" x1="90.5" y1="285" x2="90.5" y2="596.381" gradientUnits="userSpaceOnUse">
<stop stop-color="#F7DD43"/>
<stop offset="1" stop-color="#F7DD43" stop-opacity="0"/>
</linearGradient>
<linearGradient id="paint25_linear_122_130" x1="90.5" y1="285" x2="90.5" y2="596.381" gradientUnits="userSpaceOnUse">
<stop stop-color="#F7DD43"/>
<stop offset="1" stop-color="#F7DD43" stop-opacity="0"/>
</linearGradient>
<linearGradient id="paint26_linear_122_130" x1="90.5" y1="285" x2="90.5" y2="596.381" gradientUnits="userSpaceOnUse">
<stop stop-color="#F7DD43"/>
<stop offset="1" stop-color="#F7DD43" stop-opacity="0"/>
</linearGradient>
<linearGradient id="paint27_linear_122_130" x1="90.5" y1="285" x2="90.5" y2="596.381" gradientUnits="userSpaceOnUse">
<stop stop-color="#F7DD43"/>
<stop offset="1" stop-color="#F7DD43" stop-opacity="0"/>
</linearGradient>
<linearGradient id="paint28_linear_122_130" x1="90.5" y1="285" x2="90.5" y2="596.381" gradientUnits="userSpaceOnUse">
<stop stop-color="#F7DD43"/>
<stop offset="1" stop-color="#F7DD43" stop-opacity="0"/>
</linearGradient>
<linearGradient id="paint29_linear_122_130" x1="90.5" y1="285" x2="90.5" y2="596.381" gradientUnits="userSpaceOnUse">
<stop stop-color="#F7DD43"/>
<stop offset="1" stop-color="#F7DD43" stop-opacity="0"/>
</linearGradient>
<linearGradient id="paint30_linear_122_130" x1="90.5" y1="285" x2="90.5" y2="596.381" gradientUnits="userSpaceOnUse">
<stop stop-color="#F7DD43"/>
<stop offset="1" stop-color="#F7DD43" stop-opacity="0"/>
</linearGradient>
<linearGradient id="paint31_linear_122_130" x1="90.5" y1="285" x2="90.5" y2="596.381" gradientUnits="userSpaceOnUse">
<stop stop-color="#F7DD43"/>
<stop offset="1" stop-color="#F7DD43" stop-opacity="0"/>
</linearGradient>
<linearGradient id="paint32_linear_122_130" x1="90.5" y1="285" x2="90.5" y2="596.381" gradientUnits="userSpaceOnUse">
<stop stop-color="#F7DD43"/>
<stop offset="1" stop-color="#F7DD43" stop-opacity="0"/>
</linearGradient>
<linearGradient id="paint33_linear_122_130" x1="90.5" y1="285" x2="90.5" y2="596.381" gradientUnits="userSpaceOnUse">
<stop stop-color="#F7DD43"/>
<stop offset="1" stop-color="#F7DD43" stop-opacity="0"/>
</linearGradient>
<linearGradient id="paint34_linear_122_130" x1="90.5" y1="285" x2="90.5" y2="596.381" gradientUnits="userSpaceOnUse">
<stop stop-color="#F7DD43"/>
<stop offset="1" stop-color="#F7DD43" stop-opacity="0"/>
</linearGradient>
<linearGradient id="paint35_linear_122_130" x1="90.5" y1="285" x2="90.5" y2="596.381" gradientUnits="userSpaceOnUse">
<stop stop-color="#F7DD43"/>
<stop offset="1" stop-color="#F7DD43" stop-opacity="0"/>
</linearGradient>
<linearGradient id="paint36_linear_122_130" x1="90.5" y1="285" x2="90.5" y2="596.381" gradientUnits="userSpaceOnUse">
<stop stop-color="#F7DD43"/>
<stop offset="1" stop-color="#F7DD43" stop-opacity="0"/>
</linearGradient>
<linearGradient id="paint37_linear_122_130" x1="90.5" y1="285" x2="90.5" y2="596.381" gradientUnits="userSpaceOnUse">
<stop stop-color="#F7DD43"/>
<stop offset="1" stop-color="#F7DD43" stop-opacity="0"/>
</linearGradient>
<linearGradient id="paint38_linear_122_130" x1="90.5" y1="285" x2="90.5" y2="596.381" gradientUnits="userSpaceOnUse">
<stop stop-color="#F7DD43"/>
<stop offset="1" stop-color="#F7DD43" stop-opacity="0"/>
</linearGradient>
<linearGradient id="paint39_linear_122_130" x1="90.5" y1="285" x2="90.5" y2="596.381" gradientUnits="userSpaceOnUse">
<stop stop-color="#F7DD43"/>
<stop offset="1" stop-color="#F7DD43" stop-opacity="0"/>
</linearGradient>
<linearGradient id="paint40_linear_122_130" x1="90.5" y1="285" x2="90.5" y2="596.381" gradientUnits="userSpaceOnUse">
<stop stop-color="#F7DD43"/>
<stop offset="1" stop-color="#F7DD43" stop-opacity="0"/>
</linearGradient>
<linearGradient id="paint41_linear_122_130" x1="90.5" y1="285" x2="90.5" y2="596.381" gradientUnits="userSpaceOnUse">
<stop stop-color="#F7DD43"/>
<stop offset="1" stop-color="#F7DD43" stop-opacity="0"/>
</linearGradient>
<linearGradient id="paint42_linear_122_130" x1="90.5" y1="285" x2="90.5" y2="596.381" gradientUnits="userSpaceOnUse">
<stop stop-color="#F7DD43"/>
<stop offset="1" stop-color="#F7DD43" stop-opacity="0"/>
</linearGradient>
<linearGradient id="paint43_linear_122_130" x1="90.5" y1="285" x2="90.5" y2="596.381" gradientUnits="userSpaceOnUse">
<stop stop-color="#F7DD43"/>
<stop offset="1" stop-color="#F7DD43" stop-opacity="0"/>
</linearGradient>
<linearGradient id="paint44_linear_122_130" x1="90.5" y1="285" x2="90.5" y2="596.381" gradientUnits="userSpaceOnUse">
<stop stop-color="#F7DD43"/>
<stop offset="1" stop-color="#F7DD43" stop-opacity="0"/>
</linearGradient>
<linearGradient id="paint45_linear_122_130" x1="90.5" y1="285" x2="90.5" y2="596.381" gradientUnits="userSpaceOnUse">
<stop stop-color="#F7DD43"/>
<stop offset="1" stop-color="#F7DD43" stop-opacity="0"/>
</linearGradient>
<linearGradient id="paint46_linear_122_130" x1="90.5" y1="285" x2="90.5" y2="596.381" gradientUnits="userSpaceOnUse">
<stop stop-color="#F7DD43"/>
<stop offset="1" stop-color="#F7DD43" stop-opacity="0"/>
</linearGradient>
<linearGradient id="paint47_linear_122_130" x1="976.5" y1="-15" x2="976.5" y2="283.818" gradientUnits="userSpaceOnUse">
<stop stop-color="#F7DD43"/>
<stop offset="1" stop-color="#F7DD43" stop-opacity="0"/>
</linearGradient>
<linearGradient id="paint48_linear_122_130" x1="976.5" y1="-15" x2="976.5" y2="283.818" gradientUnits="userSpaceOnUse">
<stop stop-color="#F7DD43"/>
<stop offset="1" stop-color="#F7DD43" stop-opacity="0"/>
</linearGradient>
<linearGradient id="paint49_linear_122_130" x1="976.5" y1="-15" x2="976.5" y2="283.818" gradientUnits="userSpaceOnUse">
<stop stop-color="#F7DD43"/>
<stop offset="1" stop-color="#F7DD43" stop-opacity="0"/>
</linearGradient>
<linearGradient id="paint50_linear_122_130" x1="976.5" y1="-15" x2="976.5" y2="283.818" gradientUnits="userSpaceOnUse">
<stop stop-color="#F7DD43"/>
<stop offset="1" stop-color="#F7DD43" stop-opacity="0"/>
</linearGradient>
<linearGradient id="paint51_linear_122_130" x1="976.5" y1="-15" x2="976.5" y2="283.818" gradientUnits="userSpaceOnUse">
<stop stop-color="#F7DD43"/>
<stop offset="1" stop-color="#F7DD43" stop-opacity="0"/>
</linearGradient>
<linearGradient id="paint52_linear_122_130" x1="976.5" y1="-15" x2="976.5" y2="283.818" gradientUnits="userSpaceOnUse">
<stop stop-color="#F7DD43"/>
<stop offset="1" stop-color="#F7DD43" stop-opacity="0"/>
</linearGradient>
<linearGradient id="paint53_linear_122_130" x1="976.5" y1="-15" x2="976.5" y2="283.818" gradientUnits="userSpaceOnUse">
<stop stop-color="#F7DD43"/>
<stop offset="1" stop-color="#F7DD43" stop-opacity="0"/>
</linearGradient>
<linearGradient id="paint54_linear_122_130" x1="976.5" y1="-15" x2="976.5" y2="283.818" gradientUnits="userSpaceOnUse">
<stop stop-color="#F7DD43"/>
<stop offset="1" stop-color="#F7DD43" stop-opacity="0"/>
</linearGradient>
<linearGradient id="paint55_linear_122_130" x1="976.5" y1="-15" x2="976.5" y2="283.818" gradientUnits="userSpaceOnUse">
<stop stop-color="#F7DD43"/>
<stop offset="1" stop-color="#F7DD43" stop-opacity="0"/>
</linearGradient>
<linearGradient id="paint56_linear_122_130" x1="976.5" y1="-15" x2="976.5" y2="283.818" gradientUnits="userSpaceOnUse">
<stop stop-color="#F7DD43"/>
<stop offset="1" stop-color="#F7DD43" stop-opacity="0"/>
</linearGradient>
<linearGradient id="paint57_linear_122_130" x1="976.5" y1="-15" x2="976.5" y2="283.818" gradientUnits="userSpaceOnUse">
<stop stop-color="#F7DD43"/>
<stop offset="1" stop-color="#F7DD43" stop-opacity="0"/>
</linearGradient>
<linearGradient id="paint58_linear_122_130" x1="976.5" y1="-15" x2="976.5" y2="283.818" gradientUnits="userSpaceOnUse">
<stop stop-color="#F7DD43"/>
<stop offset="1" stop-color="#F7DD43" stop-opacity="0"/>
</linearGradient>
<linearGradient id="paint59_linear_122_130" x1="976.5" y1="-15" x2="976.5" y2="283.818" gradientUnits="userSpaceOnUse">
<stop stop-color="#F7DD43"/>
<stop offset="1" stop-color="#F7DD43" stop-opacity="0"/>
</linearGradient>
<linearGradient id="paint60_linear_122_130" x1="976.5" y1="-15" x2="976.5" y2="283.818" gradientUnits="userSpaceOnUse">
<stop stop-color="#F7DD43"/>
<stop offset="1" stop-color="#F7DD43" stop-opacity="0"/>
</linearGradient>
<linearGradient id="paint61_linear_122_130" x1="976.5" y1="-15" x2="976.5" y2="283.818" gradientUnits="userSpaceOnUse">
<stop stop-color="#F7DD43"/>
<stop offset="1" stop-color="#F7DD43" stop-opacity="0"/>
</linearGradient>
<linearGradient id="paint62_linear_122_130" x1="976.5" y1="-15" x2="976.5" y2="283.818" gradientUnits="userSpaceOnUse">
<stop stop-color="#F7DD43"/>
<stop offset="1" stop-color="#F7DD43" stop-opacity="0"/>
</linearGradient>
<linearGradient id="paint63_linear_122_130" x1="976.5" y1="-15" x2="976.5" y2="283.818" gradientUnits="userSpaceOnUse">
<stop stop-color="#F7DD43"/>
<stop offset="1" stop-color="#F7DD43" stop-opacity="0"/>
</linearGradient>
<linearGradient id="paint64_linear_122_130" x1="976.5" y1="-15" x2="976.5" y2="283.818" gradientUnits="userSpaceOnUse">
<stop stop-color="#F7DD43"/>
<stop offset="1" stop-color="#F7DD43" stop-opacity="0"/>
</linearGradient>
<linearGradient id="paint65_linear_122_130" x1="976.5" y1="-15" x2="976.5" y2="283.818" gradientUnits="userSpaceOnUse">
<stop stop-color="#F7DD43"/>
<stop offset="1" stop-color="#F7DD43" stop-opacity="0"/>
</linearGradient>
<linearGradient id="paint66_linear_122_130" x1="976.5" y1="-15" x2="976.5" y2="283.818" gradientUnits="userSpaceOnUse">
<stop stop-color="#F7DD43"/>
<stop offset="1" stop-color="#F7DD43" stop-opacity="0"/>
</linearGradient>
<linearGradient id="paint67_linear_122_130" x1="976.5" y1="-15" x2="976.5" y2="283.818" gradientUnits="userSpaceOnUse">
<stop stop-color="#F7DD43"/>
<stop offset="1" stop-color="#F7DD43" stop-opacity="0"/>
</linearGradient>
<linearGradient id="paint68_linear_122_130" x1="976.5" y1="-15" x2="976.5" y2="283.818" gradientUnits="userSpaceOnUse">
<stop stop-color="#F7DD43"/>
<stop offset="1" stop-color="#F7DD43" stop-opacity="0"/>
</linearGradient>
<linearGradient id="paint69_linear_122_130" x1="976.5" y1="-15" x2="976.5" y2="283.818" gradientUnits="userSpaceOnUse">
<stop stop-color="#F7DD43"/>
<stop offset="1" stop-color="#F7DD43" stop-opacity="0"/>
</linearGradient>
<linearGradient id="paint70_linear_122_130" x1="976.5" y1="-15" x2="976.5" y2="283.818" gradientUnits="userSpaceOnUse">
<stop stop-color="#F7DD43"/>
<stop offset="1" stop-color="#F7DD43" stop-opacity="0"/>
</linearGradient>
<linearGradient id="paint71_linear_122_130" x1="976.5" y1="-15" x2="976.5" y2="283.818" gradientUnits="userSpaceOnUse">
<stop stop-color="#F7DD43"/>
<stop offset="1" stop-color="#F7DD43" stop-opacity="0"/>
</linearGradient>
<linearGradient id="paint72_linear_122_130" x1="976.5" y1="-15" x2="976.5" y2="283.818" gradientUnits="userSpaceOnUse">
<stop stop-color="#F7DD43"/>
<stop offset="1" stop-color="#F7DD43" stop-opacity="0"/>
</linearGradient>
<linearGradient id="paint73_linear_122_130" x1="976.5" y1="-15" x2="976.5" y2="283.818" gradientUnits="userSpaceOnUse">
<stop stop-color="#F7DD43"/>
<stop offset="1" stop-color="#F7DD43" stop-opacity="0"/>
</linearGradient>
<linearGradient id="paint74_linear_122_130" x1="976.5" y1="-15" x2="976.5" y2="283.818" gradientUnits="userSpaceOnUse">
<stop stop-color="#F7DD43"/>
<stop offset="1" stop-color="#F7DD43" stop-opacity="0"/>
</linearGradient>
<linearGradient id="paint75_linear_122_130" x1="976.5" y1="-15" x2="976.5" y2="283.818" gradientUnits="userSpaceOnUse">
<stop stop-color="#F7DD43"/>
<stop offset="1" stop-color="#F7DD43" stop-opacity="0"/>
</linearGradient>
<linearGradient id="paint76_linear_122_130" x1="976.5" y1="-15" x2="976.5" y2="283.818" gradientUnits="userSpaceOnUse">
<stop stop-color="#F7DD43"/>
<stop offset="1" stop-color="#F7DD43" stop-opacity="0"/>
</linearGradient>
<linearGradient id="paint77_linear_122_130" x1="976.5" y1="-15" x2="976.5" y2="283.818" gradientUnits="userSpaceOnUse">
<stop stop-color="#F7DD43"/>
<stop offset="1" stop-color="#F7DD43" stop-opacity="0"/>
</linearGradient>
<linearGradient id="paint78_linear_122_130" x1="976.5" y1="-15" x2="976.5" y2="283.818" gradientUnits="userSpaceOnUse">
<stop stop-color="#F7DD43"/>
<stop offset="1" stop-color="#F7DD43" stop-opacity="0"/>
</linearGradient>
<linearGradient id="paint79_linear_122_130" x1="976.5" y1="-15" x2="976.5" y2="283.818" gradientUnits="userSpaceOnUse">
<stop stop-color="#F7DD43"/>
<stop offset="1" stop-color="#F7DD43" stop-opacity="0"/>
</linearGradient>
<linearGradient id="paint80_linear_122_130" x1="976.5" y1="-15" x2="976.5" y2="283.818" gradientUnits="userSpaceOnUse">
<stop stop-color="#F7DD43"/>
<stop offset="1" stop-color="#F7DD43" stop-opacity="0"/>
</linearGradient>
<linearGradient id="paint81_linear_122_130" x1="976.5" y1="-15" x2="976.5" y2="283.818" gradientUnits="userSpaceOnUse">
<stop stop-color="#F7DD43"/>
<stop offset="1" stop-color="#F7DD43" stop-opacity="0"/>
</linearGradient>
<linearGradient id="paint82_linear_122_130" x1="976.5" y1="-15" x2="976.5" y2="283.818" gradientUnits="userSpaceOnUse">
<stop stop-color="#F7DD43"/>
<stop offset="1" stop-color="#F7DD43" stop-opacity="0"/>
</linearGradient>
<linearGradient id="paint83_linear_122_130" x1="976.5" y1="-15" x2="976.5" y2="283.818" gradientUnits="userSpaceOnUse">
<stop stop-color="#F7DD43"/>
<stop offset="1" stop-color="#F7DD43" stop-opacity="0"/>
</linearGradient>
<linearGradient id="paint84_linear_122_130" x1="976.5" y1="-15" x2="976.5" y2="283.818" gradientUnits="userSpaceOnUse">
<stop stop-color="#F7DD43"/>
<stop offset="1" stop-color="#F7DD43" stop-opacity="0"/>
</linearGradient>
<linearGradient id="paint85_linear_122_130" x1="976.5" y1="-15" x2="976.5" y2="283.818" gradientUnits="userSpaceOnUse">
<stop stop-color="#F7DD43"/>
<stop offset="1" stop-color="#F7DD43" stop-opacity="0"/>
</linearGradient>
<linearGradient id="paint86_linear_122_130" x1="976.5" y1="-15" x2="976.5" y2="283.818" gradientUnits="userSpaceOnUse">
<stop stop-color="#F7DD43"/>
<stop offset="1" stop-color="#F7DD43" stop-opacity="0"/>
</linearGradient>
<linearGradient id="paint87_linear_122_130" x1="976.5" y1="-15" x2="976.5" y2="283.818" gradientUnits="userSpaceOnUse">
<stop stop-color="#F7DD43"/>
<stop offset="1" stop-color="#F7DD43" stop-opacity="0"/>
</linearGradient>
<linearGradient id="paint88_linear_122_130" x1="976.5" y1="-15" x2="976.5" y2="283.818" gradientUnits="userSpaceOnUse">
<stop stop-color="#F7DD43"/>
<stop offset="1" stop-color="#F7DD43" stop-opacity="0"/>
</linearGradient>
<linearGradient id="paint89_linear_122_130" x1="976.5" y1="-15" x2="976.5" y2="283.818" gradientUnits="userSpaceOnUse">
<stop stop-color="#F7DD43"/>
<stop offset="1" stop-color="#F7DD43" stop-opacity="0"/>
</linearGradient>
<linearGradient id="paint90_linear_122_130" x1="976.5" y1="-15" x2="976.5" y2="283.818" gradientUnits="userSpaceOnUse">
<stop stop-color="#F7DD43"/>
<stop offset="1" stop-color="#F7DD43" stop-opacity="0"/>
</linearGradient>
<linearGradient id="paint91_linear_122_130" x1="976.5" y1="-15" x2="976.5" y2="283.818" gradientUnits="userSpaceOnUse">
<stop stop-color="#F7DD43"/>
<stop offset="1" stop-color="#F7DD43" stop-opacity="0"/>
</linearGradient>
<linearGradient id="paint92_linear_122_130" x1="976.5" y1="-15" x2="976.5" y2="283.818" gradientUnits="userSpaceOnUse">
<stop stop-color="#F7DD43"/>
<stop offset="1" stop-color="#F7DD43" stop-opacity="0"/>
</linearGradient>
<linearGradient id="paint93_linear_122_130" x1="976.5" y1="-15" x2="976.5" y2="283.818" gradientUnits="userSpaceOnUse">
<stop stop-color="#F7DD43"/>
<stop offset="1" stop-color="#F7DD43" stop-opacity="0"/>
</linearGradient>
<clipPath id="clip0_122_130">
<rect width="1024" height="753" fill="white"/>
</clipPath>
</defs>
</svg>

